<svg width="305" height="40" viewBox="0 0 305 40" fill="none" xmlns="http://www.w3.org/2000/svg">
<path d="M164.733 38.9152H142.819C139.07 38.9152 131.622 35.7656 132.445 27.5448L136.357 11.9111H150.156C147.902 18.7099 142.386 29.285 149.134 29.285H167.618" fill="currentColor"/>
<path d="M136.988 8.99389C136.988 8.99389 139.47 0.0253906 148.339 0.0253906H175.597L173.221 8.99708H136.986L136.988 8.99389Z" fill="currentColor"/>
<path d="M175.792 11.9298L168.197 38.9148H197.493L205.283 29.291L204.366 29.2845L184.559 29.1986L189.588 11.8916L175.792 11.9298Z" fill="currentColor"/>
<path d="M262.669 0.0253906H226.805L224.487 8.9748H259.901L262.669 0.0253906Z" fill="currentColor"/>
<path d="M259.247 11.9287H223.706L216.624 38.8279H231.197L235.827 22.1029H256.161L259.247 11.9287Z" fill="currentColor"/>
<path d="M202.687 27.3396L206.82 11.9287H220.426L213.232 38.9138H200.957L210.19 27.3333" fill="currentColor"/>
<path d="M104.534 29.2454L109.324 11.9287H95.668L91.4067 27.3842L101.942 27.4383L93.2093 38.9138H117.165L125.07 29.2454" fill="currentColor"/>
<path d="M43.5571 38.9138H57.261L64.6114 11.9287H50.8725L43.5571 38.9138Z" fill="currentColor"/>
<path d="M301.477 0.0253906H265.613L263.295 8.9748H298.709L301.477 0.0253906Z" fill="currentColor"/>
<path d="M298.065 11.9287H262.523L255.441 38.8279H270.014L274.645 22.1029H294.979L298.065 11.9287Z" fill="currentColor"/>
<path d="M68.0432 11.9298L60.4443 38.9148H89.7439L97.5338 29.291L96.6166 29.2845L76.8107 29.1986L81.8362 11.8916L68.0432 11.9298Z" fill="currentColor"/>
<path d="M176.508 9.01616L179.008 0.0253906H192.683L190.192 9.01616H176.508Z" fill="currentColor"/>
<path d="M207.565 8.99395L210.061 0H223.737L221.249 8.99395H207.565Z" fill="currentColor"/>
<path d="M96.4912 9.01616L98.9912 0.0253906H112.666L110.176 9.01616H96.4912Z" fill="currentColor"/>
<path d="M68.7383 9.01616L71.2351 0.0253906H84.9136L82.4231 9.01616H68.7383Z" fill="currentColor"/>
<path d="M51.6265 9.01616L54.1264 0.0253906H67.8018L65.3112 9.01616H51.6265Z" fill="currentColor"/>
<path d="M8.04395 9.01616L10.5408 0.0253906H24.2161L21.7288 9.01616H8.04395Z" fill="currentColor"/>
<path d="M23.7529 9.01621L33.3072 0H51.6545L42.3582 8.97486L23.7529 9.01621Z" fill="currentColor"/>
<path d="M39.9207 11.5498H7.55739L0 38.9135H13.6083L18.4014 22.2076L26.8538 38.9135H41.7774L31.8889 19.6529L39.9207 11.5498Z" fill="currentColor"/>
<path d="M304.996 19.3397C304.996 21.1023 303.61 22.4861 301.808 22.4861C300.006 22.4861 298.601 21.1023 298.601 19.3397C298.601 17.5772 300.025 16.2314 301.808 16.2314C303.592 16.2314 304.996 17.6154 304.996 19.3397ZM299.4 19.3397C299.4 20.7237 300.426 21.8212 301.827 21.8212C303.228 21.8212 304.199 20.7237 304.199 19.3588C304.199 17.994 303.194 16.8582 301.808 16.8582C300.422 16.8582 299.397 17.9748 299.397 19.3397H299.4ZM301.318 20.9686H300.597V17.8603C300.881 17.803 301.279 17.7649 301.792 17.7649C302.382 17.7649 302.646 17.8603 302.875 17.9908C303.047 18.1243 303.177 18.3694 303.177 18.6716C303.177 19.012 302.913 19.2792 302.531 19.3906V19.4288C302.834 19.5433 303.005 19.7119 303.101 20.1859C303.196 20.6601 303.254 20.8477 303.328 20.9623H302.55C302.455 20.8477 302.397 20.5645 302.305 20.2051C302.247 19.8646 302.059 19.7119 301.658 19.7119H301.318V20.9623V20.9686ZM301.336 19.206H301.678C302.076 19.206 302.397 19.0725 302.397 18.7511C302.397 18.468 301.734 18.2771 301.734 18.2771C301.544 18.2771 301.413 18.2962 301.336 18.3153V19.206Z" fill="currentColor"/>
</svg>
